<svg id="Layer_1" data-name="Layer 1" xmlns="http://www.w3.org/2000/svg" viewBox="0 0 154.06 153.78"><defs><style>.cls-1{fill:#d13a34;}</style></defs><title>error</title><path class="cls-1" d="M4751.77,1147.42a75.55,75.55,0,0,1-24.43-16.52,80.32,80.32,0,0,1-16.52-24.57,76,76,0,0,1,0-59.68,80.22,80.22,0,0,1,16.52-24.57,76.76,76.76,0,0,1,108.81,0,80.22,80.22,0,0,1,16.52,24.57,76,76,0,0,1,0,59.68,80.32,80.32,0,0,1-16.52,24.57,77.46,77.46,0,0,1-84.39,16.52Zm35.95-41.22h-11.94v11.66h11.94Zm0-71.06h-11.94v59.13h11.94Z" transform="translate(-4704.72 -999.61)"/></svg>